<?xml version="1.0" encoding="UTF-8"?>
<svg id="Camada_2" data-name="Camada 2" xmlns="http://www.w3.org/2000/svg" xmlns:xlink="http://www.w3.org/1999/xlink" viewBox="0 0 804.61 744.08">
  <defs>
    <style>
      .cls-1 {
        fill: url(#linear-gradient);
      }

      .cls-2 {
        clip-rule: evenodd;
        fill: none;
      }

      .cls-3 {
        clip-path: url(#clippath);
      }
    </style>
    <clipPath id="clippath">
      <path class="cls-2" d="M494.26,25.71l30.57,105.99,131.79,8.64c-34.4-42.2-77.11-75.75-124.84-98.93-12.19-5.92-24.72-11.17-37.52-15.7M250.7,25.23l114.08,61.87,120.05-64.58c-35.97-11.66-73.96-17.8-112.79-17.8-42.52,0-83.35,7.23-121.34,20.52ZM359.07,89.36l-112.5-61-23.99,111.1,136.49-50.1ZM519.62,130.55l-30.32-105.1-118.27,63.63,148.6,41.47ZM655.54,144.98l-130.01-8.53,5.86,106.62,124.15-98.09ZM88.86,138.07l129.71-2.34,23.16-107.23c-49.02,18.61-93.03,47.4-129.42,83.8-8.21,8.21-16.04,16.81-23.45,25.77ZM217.56,140.45l-131.32,2.36,2.86,125.5,128.13-126.34.33-1.52ZM228.7,229.1l-134.76,44.83,86.65,32.22c10.08-29.31,26.7-55.57,48.11-77.05ZM328.22,174.37l-105.67-27.96,16.79,72.76c25-21.72,55.38-37.41,88.88-44.8ZM424.23,176.33l-58.6-81.35-23.53,76.84c9.77-1.45,19.77-2.2,29.94-2.2,17.83,0,35.36,2.29,52.19,6.71ZM520.89,137.63l-84.58,42.28c8.3,2.74,16.41,6.02,24.27,9.81,24.99,12.04,47.5,29.25,65.98,50.97l-5.67-103.06ZM370.59,93.83l60.21,83.59,85.74-42.85-145.95-40.73ZM227.2,142.78l109.97,29.1,23.97-78.27-133.94,49.17ZM95.71,268.39l139.46-46.39-17.13-74.24-122.33,120.63ZM372.04,242.13c56.52,0,104.61,36.1,122.47,86.5,12.1,34.13,111.9,32.48,125.55,2.91,15.32-33.18,48.89-56.21,87.84-56.21,53.41,0,96.71,43.3,96.71,96.71s-43.29,96.71-96.71,96.71c-38.95,0-72.51-23.03-87.84-56.21-13.66-29.57-113.46-31.23-125.55,2.91-17.86,50.4-65.95,86.5-122.47,86.5-71.74,0-129.91-58.16-129.91-129.91s58.16-129.9,129.91-129.9ZM663.63,602.49c-35.42,44.73-79.91,80.17-129.82,104.4-49.75,24.15-104.88,37.18-161.78,37.18-89.12,0-170.92-31.35-235.08-83.69-9.78-7.99-19.11-16.41-27.98-25.29C50.56,576.69,11.48,498.93,2.15,412.19c-1.42-13.21-2.15-26.6-2.15-40.15,0-102.72,41.65-195.74,108.98-263.06C176.31,41.65,269.31,0,372.04,0c56.89,0,112.03,13.02,161.78,37.18,49.91,24.23,94.4,59.67,129.82,104.4l1.46,1.84c-45.38,35.88-90.76,71.76-136.18,107.59l-1.46-1.83c-18.83-23.78-42.44-42.47-68.92-55.22-26.57-12.8-56.05-19.62-86.49-19.62-54.61,0-104.04,22.12-139.81,57.9-35.78,35.77-57.9,85.21-57.9,139.81s22.12,104.04,57.9,139.82c35.77,35.77,85.2,57.9,139.81,57.9,30.44,0,59.92-6.82,86.49-19.62,26.48-12.75,50.09-31.44,68.92-55.22l1.46-1.84,136.18,107.59-1.46,1.84Z"/>
    </clipPath>
    <linearGradient id="linear-gradient" x1="30.95" y1="774.71" x2="772.62" y2="-29.5" gradientUnits="userSpaceOnUse">
      <stop offset="0" stop-color="#ff4b19"/>
      <stop offset="1" stop-color="#ffa70e"/>
    </linearGradient>
  </defs>
  <g id="Camada_1-2" data-name="Camada 1">
    <g class="cls-3">
      <rect class="cls-1" width="804.61" height="744.08"/>
    </g>
  </g>
</svg>