<?xml version="1.0" encoding="UTF-8"?>
<svg id="Camada_2" xmlns="http://www.w3.org/2000/svg" xmlns:xlink="http://www.w3.org/1999/xlink" version="1.1" viewBox="0 0 1024 1024">
  <!-- Generator: Adobe Illustrator 29.8.2, SVG Export Plug-In . SVG Version: 2.1.1 Build 3)  -->
  <defs>
    <style>
      .st0 {
        fill: none;
      }

      .st1 {
        fill: url(#Gradiente_sem_nome_196);
      }

      .st2 {
        fill: url(#Gradiente_sem_nome_225);
      }

      .st3 {
        fill: url(#Gradiente_sem_nome_2252);
      }

      .st4 {
        fill: url(#Gradiente_sem_nome_2251);
      }
    </style>
    <linearGradient id="Gradiente_sem_nome_225" data-name="Gradiente sem nome 225" x1="514.1" y1="796.8" x2="842.1" y2="604.7" gradientTransform="translate(0 1023) scale(1 -1)" gradientUnits="userSpaceOnUse">
      <stop offset="0" stop-color="#fff"/>
      <stop offset="1" stop-color="#ced4da"/>
    </linearGradient>
    <linearGradient id="Gradiente_sem_nome_2251" data-name="Gradiente sem nome 225" x1="1040.9" y1="792.2" x2="663.3" y2="211.9" xlink:href="#Gradiente_sem_nome_225"/>
    <linearGradient id="Gradiente_sem_nome_2252" data-name="Gradiente sem nome 225" x1="506.5" y1="215.9" x2="225.7" y2="412.1" xlink:href="#Gradiente_sem_nome_225"/>
    <linearGradient id="Gradiente_sem_nome_196" data-name="Gradiente sem nome 196" x1="333.5" y1="813.2" x2="-32" y2="154.9" gradientTransform="translate(0 1023) scale(1 -1)" gradientUnits="userSpaceOnUse">
      <stop offset="0" stop-color="#fff"/>
      <stop offset="1" stop-color="#ced4da"/>
    </linearGradient>
  </defs>
  <g id="Camada_1-2">
    <g>
      <g>
        <polygon class="st0" points="530.4 200.9 331.3 555.1 331.3 555.1 530.4 201.2 530.4 200.9"/>
        <polygon class="st0" points="530.4 201.2 331.3 555.1 493.6 555.1 493.6 822.8 692.7 468.9 530.4 468.9 530.4 201.2"/>
        <polygon class="st0" points="493.6 822.9 692.7 468.9 692.7 468.9 493.6 822.8 493.6 822.9"/>
        <path class="st2" d="M530.4,468.9h162.3l150.5-267.5c-45.8,21-100.9,20.4-148-6.8-52.7-30.3-81.8-86.1-80.8-142.8l-84.1,149.4v267.6h0Z"/>
        <path class="st4" d="M962,370.6c-10-32.3-23.9-63.9-41.5-94.5-17.7-30.5-38.1-58.3-61-83.2-5.2,3.2-10.7,5.9-16.3,8.4l-150.5,267.5h0l-199.1,354h0c0,0-84.1,149.3-84.1,149.3h0c66.7,15,136.6,15.5,204.9.2-1-56.9,27.9-112.6,80.8-143.1,52.8-30.5,115.7-27.7,164.4,1.7,47.3-51.6,81.9-112.5,102.3-177.6-49.7-27.3-83.5-80.4-83.4-141.3,0-60.9,33.7-114,83.5-141.4h0Z"/>
        <path class="st3" d="M493.6,555.1h-162.4l-150.4,267.4c45.8-21,100.9-20.3,148,6.8,52.7,30.3,81.8,86,80.8,142.8l84.1-149.4v-267.6h0Z"/>
        <path class="st1" d="M331.3,555.1l199.1-354.2v.3l84.1-149.4h0c-66.7-15-136.6-15.5-204.9-.2,1,56.9-27.9,112.6-80.8,143.1-52.8,30.4-115.7,27.7-164.4-1.7-47.3,51.6-81.9,112.5-102.3,177.6,49.7,27.3,83.5,80.4,83.4,141.3,0,60.9-33.7,114-83.5,141.4,10,32.3,23.9,63.9,41.5,94.5,17.7,30.5,38.1,58.2,61,83.2,5.2-3.2,10.7-5.9,16.3-8.4l150.5-267.4h0Z"/>
      </g>
      <rect class="st0" width="1024" height="1024"/>
    </g>
  </g>
</svg>