<?xml version="1.0" encoding="UTF-8"?>
<svg id="Camada_2" data-name="Camada 2" xmlns="http://www.w3.org/2000/svg" xmlns:xlink="http://www.w3.org/1999/xlink" viewBox="0 0 1024 1024">
  <defs>
    <style>
      .cls-1 {
        fill: none;
      }

      .cls-2 {
        fill: url(#Gradiente_sem_nome_226);
      }

      .cls-3 {
        fill: url(#Gradiente_sem_nome_246);
      }

      .cls-4 {
        fill: url(#Gradiente_sem_nome_226-3);
      }

      .cls-5 {
        fill: url(#Gradiente_sem_nome_226-2);
      }
    </style>
    <linearGradient id="Gradiente_sem_nome_226" data-name="Gradiente sem nome 226" x1="514.12" y1="226.19" x2="842.11" y2="418.3" gradientUnits="userSpaceOnUse">
      <stop offset="0" stop-color="#008cf3"/>
      <stop offset="1" stop-color="#1b53e9"/>
    </linearGradient>
    <linearGradient id="Gradiente_sem_nome_226-2" data-name="Gradiente sem nome 226" x1="862.89" y1="503.68" x2="497.41" y2="1162" xlink:href="#Gradiente_sem_nome_226"/>
    <linearGradient id="Gradiente_sem_nome_226-3" data-name="Gradiente sem nome 226" x1="506.5" y1="807.16" x2="225.67" y2="610.88" xlink:href="#Gradiente_sem_nome_226"/>
    <linearGradient id="Gradiente_sem_nome_246" data-name="Gradiente sem nome 246" x1="554.96" y1="-85.49" x2="177.27" y2="494.79" gradientUnits="userSpaceOnUse">
      <stop offset="0" stop-color="#1b53e9"/>
      <stop offset="1" stop-color="#008cf3"/>
    </linearGradient>
  </defs>
  <g id="Camada_1-2" data-name="Camada 1">
    <g>
      <g>
        <polygon class="cls-1" points="530.37 200.91 331.28 555.13 331.28 555.13 530.37 201.23 530.37 200.91"/>
        <polygon class="cls-1" points="530.37 201.23 331.28 555.13 493.63 555.13 493.63 822.77 692.72 468.87 530.37 468.87 530.37 201.23"/>
        <polygon class="cls-1" points="493.63 822.87 692.72 468.87 692.72 468.87 493.63 822.77 493.63 822.87"/>
        <path class="cls-2" d="M530.37,468.87h162.35l150.45-267.45c-45.82,21.02-100.87,20.35-147.99-6.82-52.72-30.34-81.79-86.06-80.75-142.81l-84.07,149.44v267.64Z"/>
        <path class="cls-5" d="M962,370.63c-10.04-32.3-23.88-63.91-41.53-94.48-17.65-30.46-38.07-58.26-61.02-83.17-5.24,3.18-10.72,5.89-16.27,8.43l-150.45,267.45h0l-199.09,354v-.1l-84.07,149.44h0c66.68,14.99,136.58,15.46,204.87.23-1.04-56.87,27.92-112.59,80.75-143.15,52.83-30.46,115.7-27.69,164.38,1.73,47.3-51.56,81.9-112.47,102.32-177.64-49.72-27.34-83.52-80.4-83.4-141.31,0-60.91,33.68-113.97,83.52-141.42Z"/>
        <path class="cls-4" d="M493.63,555.13h-162.35l-150.45,267.44c45.82-21.01,100.87-20.33,147.99,6.83,52.72,30.34,81.79,86.05,80.75,142.81l84.07-149.44v-267.64Z"/>
        <path class="cls-3" d="M331.28,555.13l199.09-354.22v.32l84.07-149.44h0c-66.68-14.99-136.58-15.46-204.87-.23,1.04,56.87-27.92,112.58-80.75,143.15-52.83,30.45-115.7,27.69-164.38-1.73-47.3,51.56-81.9,112.47-102.32,177.65,49.72,27.34,83.52,80.4,83.4,141.31,0,60.91-33.68,113.97-83.52,141.43,10.04,32.3,23.88,63.91,41.53,94.48,17.65,30.46,38.07,58.25,61.02,83.17,5.24-3.18,10.73-5.89,16.27-8.44l150.45-267.44h0Z"/>
      </g>
      <rect class="cls-1" width="1024" height="1024"/>
    </g>
  </g>
</svg>